<svg width="512" height="512" viewBox="0 0 512 512" xmlns="http://www.w3.org/2000/svg">
  <defs>
    <linearGradient id="brainGradient" x1="0%" y1="0%" x2="100%" y2="100%">
      <stop offset="0%" style="stop-color:#ff00ff;stop-opacity:1" />
      <stop offset="50%" style="stop-color:#00ffff;stop-opacity:1" />
      <stop offset="100%" style="stop-color:#00ff41;stop-opacity:1" />
    </linearGradient>
    <filter id="glow">
      <feGaussianBlur stdDeviation="3" result="coloredBlur"/>
      <feMerge> 
        <feMergeNode in="coloredBlur"/>
        <feMergeNode in="SourceGraphic"/>
      </feMerge>
    </filter>
  </defs>
  
  <!-- Dark background -->
  <rect width="512" height="512" fill="#0a0a0a"/>
  
  <!-- Circuit patterns -->
  <g stroke="#00ff41" stroke-width="2" fill="none" opacity="0.6">
    <line x1="50" y1="100" x2="150" y2="100"/>
    <line x1="150" y1="100" x2="150" y2="150"/>
    <line x1="150" y1="150" x2="200" y2="150"/>
    <circle cx="150" cy="100" r="5" fill="#00ff41"/>
    <circle cx="150" cy="150" r="5" fill="#00ff41"/>
    
    <line x1="350" y1="80" x2="450" y2="80"/>
    <line x1="450" y1="80" x2="450" y2="130"/>
    <line x1="450" y1="130" x2="400" y2="130"/>
    <circle cx="450" cy="80" r="5" fill="#00ffff"/>
    <circle cx="450" cy="130" r="5" fill="#00ffff"/>
    
    <line x1="80" y1="350" x2="130" y2="350"/>
    <line x1="130" y1="350" x2="130" y2="400"/>
    <line x1="130" y1="400" x2="180" y2="400"/>
    <circle cx="130" cy="350" r="5" fill="#ff00ff"/>
    <circle cx="130" cy="400" r="5" fill="#ff00ff"/>
  </g>
  
  <!-- Main brain shape -->
  <g transform="translate(256,256)">
    <!-- Brain outline -->
    <path d="M-80,-60 Q-100,-80 -120,-60 Q-130,-40 -120,-20 Q-130,0 -120,20 Q-130,40 -120,60 Q-100,80 -80,60 Q-60,70 -40,60 Q-20,70 0,60 Q20,70 40,60 Q60,70 80,60 Q100,80 120,60 Q130,40 120,20 Q130,0 120,-20 Q130,-40 120,-60 Q100,-80 80,-60 Q60,-70 40,-60 Q20,-70 0,-60 Q-20,-70 -40,-60 Q-60,-70 -80,-60 Z" 
          fill="url(#brainGradient)" 
          stroke="#ff00ff" 
          stroke-width="3" 
          filter="url(#glow)"
          opacity="0.9"/>
    
    <!-- Brain segments/lobes -->
    <path d="M-60,-40 Q-40,-50 -20,-40 Q0,-50 20,-40 Q40,-50 60,-40" 
          stroke="#00ffff" 
          stroke-width="2" 
          fill="none" 
          filter="url(#glow)"/>
    <path d="M-60,-10 Q-40,-20 -20,-10 Q0,-20 20,-10 Q40,-20 60,-10" 
          stroke="#00ffff" 
          stroke-width="2" 
          fill="none" 
          filter="url(#glow)"/>
    <path d="M-60,20 Q-40,10 -20,20 Q0,10 20,20 Q40,10 60,20" 
          stroke="#00ffff" 
          stroke-width="2" 
          fill="none" 
          filter="url(#glow)"/>
    
    <!-- Neural network nodes -->
    <circle cx="-60" cy="-30" r="8" fill="#ff00ff" filter="url(#glow)"/>
    <circle cx="-20" cy="-35" r="6" fill="#00ffff" filter="url(#glow)"/>
    <circle cx="20" cy="-30" r="7" fill="#00ff41" filter="url(#glow)"/>
    <circle cx="60" cy="-35" r="5" fill="#ff00ff" filter="url(#glow)"/>
    
    <circle cx="-40" cy="0" r="6" fill="#00ff41" filter="url(#glow)"/>
    <circle cx="0" cy="-5" r="8" fill="#ff00ff" filter="url(#glow)"/>
    <circle cx="40" cy="0" r="6" fill="#00ffff" filter="url(#glow)"/>
    
    <circle cx="-60" cy="30" r="5" fill="#00ffff" filter="url(#glow)"/>
    <circle cx="-20" cy="35" r="7" fill="#00ff41" filter="url(#glow)"/>
    <circle cx="20" cy="30" r="6" fill="#ff00ff" filter="url(#glow)"/>
    <circle cx="60" cy="35" r="8" fill="#00ffff" filter="url(#glow)"/>
    
    <!-- Neural connections -->
    <g stroke-width="1" opacity="0.7">
      <line x1="-60" y1="-30" x2="-20" y2="-35" stroke="#ff00ff" filter="url(#glow)"/>
      <line x1="-20" y1="-35" x2="20" y2="-30" stroke="#00ffff" filter="url(#glow)"/>
      <line x1="20" y1="-30" x2="60" y2="-35" stroke="#00ff41" filter="url(#glow)"/>
      
      <line x1="-40" y1="0" x2="0" y2="-5" stroke="#00ff41" filter="url(#glow)"/>
      <line x1="0" y1="-5" x2="40" y2="0" stroke="#ff00ff" filter="url(#glow)"/>
      
      <line x1="-60" y1="30" x2="-20" y2="35" stroke="#00ffff" filter="url(#glow)"/>
      <line x1="-20" y1="35" x2="20" y2="30" stroke="#00ff41" filter="url(#glow)"/>
      <line x1="20" y1="30" x2="60" y2="35" stroke="#ff00ff" filter="url(#glow)"/>
      
      <!-- Vertical connections -->
      <line x1="-60" y1="-30" x2="-40" y2="0" stroke="#ff00ff" filter="url(#glow)"/>
      <line x1="-40" y1="0" x2="-60" y2="30" stroke="#00ff41" filter="url(#glow)"/>
      
      <line x1="0" y1="-5" x2="-20" y2="35" stroke="#00ffff" filter="url(#glow)"/>
      <line x1="0" y1="-5" x2="20" y2="30" stroke="#ff00ff" filter="url(#glow)"/>
      
      <line x1="60" y1="-35" x2="40" y2="0" stroke="#ff00ff" filter="url(#glow)"/>
      <line x1="40" y1="0" x2="60" y2="35" stroke="#00ffff" filter="url(#glow)"/>
    </g>
  </g>
  
  <!-- Corner circuit elements -->
  <g stroke="#ff00ff" stroke-width="1" fill="none" opacity="0.4">
    <!-- Top left -->
    <rect x="20" y="20" width="30" height="20"/>
    <line x1="35" y1="20" x2="35" y2="10"/>
    <circle cx="35" cy="10" r="3" fill="#ff00ff"/>
    
    <!-- Top right -->
    <rect x="462" y="20" width="30" height="20"/>
    <line x1="477" y1="20" x2="477" y2="10"/>
    <circle cx="477" cy="10" r="3" fill="#00ffff"/>
    
    <!-- Bottom left -->
    <rect x="20" y="472" width="30" height="20"/>
    <line x1="35" y1="492" x2="35" y2="502"/>
    <circle cx="35" cy="502" r="3" fill="#00ff41"/>
    
    <!-- Bottom right -->
    <rect x="462" y="472" width="30" height="20"/>
    <line x1="477" y1="492" x2="477" y2="502"/>
    <circle cx="477" cy="502" r="3" fill="#ff00ff"/>
  </g>
</svg>